name analog
datacolumns 19
datarows 50
range 0.0 0.0245
endheader
time	ground_force_vx	ground_force_vy	ground_force_vz	ground_force_px	ground_force_py	ground_force_pz	l_ground_force_vx	l_ground_force_vy	l_ground_force_vz	l_ground_force_px	l_ground_force_py	l_ground_force_pz	ground_torque_x	ground_torque_y	ground_torque_z	l_ground_torque_x	l_ground_torque_y	l_ground_torque_z
0.0	-0.0	-0.0	-0.0	-10.788718223571776	-5.526084899902344	-776.3721313476562	-0.0	-0.0	-0.0	-35.10087966918945	16.491588592529297	75.78146362304688	-0.0	-0.0	-0.0	-0.0	-0.0	-0.0
0.0005	-0.0	-0.0	-0.0	-10.03913402557373	-5.68353796005249	-776.8543090820312	-0.0	-0.0	-0.0	-34.97826385498047	16.512605667114258	77.1279296875	-0.0	-0.0	-0.0	-0.0	-0.0	-0.0
0.001	-0.0	-0.0	-0.0	-9.38790225982666	-6.286699295043945	-777.7022705078125	-0.0	-0.0	-0.0	-34.93675231933594	15.738215446472168	74.7528076171875	-0.0	-0.0	-0.0	-0.0	-0.0	-0.0
0.0015	-0.0	-0.0	-0.0	-8.543448448181152	-6.670201301574707	-776.28955078125	-0.0	-0.0	-0.0	-34.7306022644043	16.263668060302734	75.5359878540039	-0.0	-0.0	-0.0	-0.0	-0.0	-0.0
0.002	-0.0	-0.0	-0.0	-6.85480546951294	-6.396684646606445	-776.7747192382812	-0.0	-0.0	-0.0	-35.10908126831055	16.39527130126953	74.64524841308594	-0.0	-0.0	-0.0	-0.0	-0.0	-0.0
0.0025	-0.0	-0.0	-0.0	-5.969175338745117	-4.970615386962891	-776.26416015625	-0.0	-0.0	-0.0	-34.84067153930664	16.194534301757812	75.9134292602539	-0.0	-0.0	-0.0	-0.0	-0.0	-0.0
0.003	-0.0	-0.0	-0.0	-5.145952224731445	-3.9141550064086914	-773.7354736328125	-0.0	-0.0	-0.0	-35.01951599121094	16.243017196655273	74.7528076171875	-0.0	-0.0	-0.0	-0.0	-0.0	-0.0
0.0035	-0.0	-0.0	-0.0	-4.618316173553467	-3.0438015460968018	-772.2411499023438	-0.0	-0.0	-0.0	-34.94419479370117	16.222389221191406	76.9113998413086	-0.0	-0.0	-0.0	-0.0	-0.0	-0.0
0.004	-0.0	-0.0	-0.0	-4.577157020568848	-1.4329050779342651	-770.122314453125	-0.0	-0.0	-0.0	-34.937156677246094	16.243162155151367	76.29408264160156	-0.0	-0.0	-0.0	-0.0	-0.0	-0.0
0.0045000000000000005	-0.0	-0.0	-0.0	-4.570308208465576	-0.2059255540370941	-768.6558227539062	-0.0	-0.0	-0.0	-34.77881622314453	15.875948905944824	74.83334350585938	-0.0	-0.0	-0.0	-0.0	-0.0	-0.0
0.005	-0.0	-0.0	-0.0	-4.425844669342041	2.3379063606262207	-765.0970458984375	-0.0	-0.0	-0.0	-35.01374053955078	16.083955764770508	75.64488220214844	-0.0	-0.0	-0.0	-0.0	-0.0	-0.0
0.0055	-0.0	-0.0	-0.0	-4.206166744232178	4.401128768920898	-764.3624877929688	-0.0	-0.0	-0.0	-34.86834716796875	16.17396354675293	75.26424407958984	-0.0	-0.0	-0.0	-0.0	-0.0	-0.0
0.006	-0.0	-0.0	-0.0	-4.473693370819092	6.519675254821777	-760.3963623046875	-0.0	-0.0	-0.0	-34.88107681274414	16.12511444091797	75.26407623291016	-0.0	-0.0	-0.0	-0.0	-0.0	-0.0
0.006500000000000001	-0.0	-0.0	-0.0	-5.324734210968018	8.844329833984375	-757.9536743164062	-0.0	-0.0	-0.0	-34.66122055053711	16.513389587402344	74.80191040039062	-0.0	-0.0	-0.0	-0.0	-0.0	-0.0
0.007	-0.0	-0.0	-0.0	-5.401040554046631	10.71603012084961	-755.2903442382812	-0.0	-0.0	-0.0	-34.47419357299805	16.092166900634766	73.98789978027344	-0.0	-0.0	-0.0	-0.0	-0.0	-0.0
0.0075	-0.0	-0.0	-0.0	-5.923663139343262	11.627673149108888	-751.9200439453125	-0.0	-0.0	-0.0	-34.79122543334961	16.03504753112793	75.34309387207031	-0.0	-0.0	-0.0	-0.0	-0.0	-0.0
0.008	-0.0	-0.0	-0.0	-5.559238910675049	12.75029182434082	-751.8395385742188	-0.0	-0.0	-0.0	-34.96623229980469	16.13329315185547	74.7528076171875	-0.0	-0.0	-0.0	-0.0	-0.0	-0.0
0.0085	-0.0	-0.0	-0.0	-5.304027080535889	12.71737289428711	-751.3257446289062	-0.0	-0.0	-0.0	-34.839866638183594	16.124940872192383	75.64669799804688	-0.0	-0.0	-0.0	-0.0	-0.0	-0.0
0.009000000000000001	-0.0	-0.0	-0.0	-4.707870960235596	12.94417667388916	-751.7275390625	-0.0	-0.0	-0.0	-34.94953155517578	16.415189743041992	75.03716278076172	-0.0	-0.0	-0.0	-0.0	-0.0	-0.0
0.0095	-0.0	-0.0	-0.0	-4.719940662384033	12.99280834197998	-753.9590454101562	-0.0	-0.0	-0.0	-34.75029373168945	16.214855194091797	73.699951171875	-0.0	-0.0	-0.0	-0.0	-0.0	-0.0
0.01	-0.0	-0.0	-0.0	-4.411736965179443	12.21922492980957	-754.8255004882812	-0.0	-0.0	-0.0	-34.799346923828125	16.104564666748047	76.42845153808594	-0.0	-0.0	-0.0	-0.0	-0.0	-0.0
0.0105	-0.0	-0.0	-0.0	-4.598569393157959	12.231035232543944	-757.1378784179688	-0.0	-0.0	-0.0	-34.66959381103516	16.214794158935547	75.6476058959961	-0.0	-0.0	-0.0	-0.0	-0.0	-0.0
0.011	-0.0	-0.0	-0.0	-4.500827312469482	11.920405387878418	-756.511474609375	-0.0	-0.0	-0.0	-35.096858978271484	16.03481674194336	75.147216796875	-0.0	-0.0	-0.0	-0.0	-0.0	-0.0
0.0115	-0.0	-0.0	-0.0	-4.797254085540772	10.448351860046388	-758.1976928710938	-0.0	-0.0	-0.0	-35.016693115234375	16.462726593017578	75.96312713623047	-0.0	-0.0	-0.0	-0.0	-0.0	-0.0
0.012	-0.0	-0.0	-0.0	-4.846339225769043	9.514598846435549	-758.3216552734375	-0.0	-0.0	-0.0	-34.85945129394531	16.264354705810547	76.30831909179688	-0.0	-0.0	-0.0	-0.0	-0.0	-0.0
0.0125	-0.0	-0.0	-0.0	-4.520691394805908	8.674667358398438	-759.4956665039062	-0.0	-0.0	-0.0	-34.66045379638672	16.164941787719727	76.39213562011719	-0.0	-0.0	-0.0	-0.0	-0.0	-0.0
0.013000000000000001	-0.0	-0.0	-0.0	-4.489683151245117	7.070433139801025	-761.8521728515625	-0.0	-0.0	-0.0	-34.640403747558594	16.034683227539062	74.01338195800781	-0.0	-0.0	-0.0	-0.0	-0.0	-0.0
0.0135	-0.0	-0.0	-0.0	-4.183603286743164	6.506519317626953	-763.69091796875	-0.0	-0.0	-0.0	-34.859153747558594	16.24440574645996	76.54568481445312	-0.0	-0.0	-0.0	-0.0	-0.0	-0.0
0.014	-0.0	-0.0	-0.0	-4.688233852386475	5.475610256195068	-764.6716918945312	-0.0	-0.0	-0.0	-34.61063766479492	16.424381256103516	76.23474884033203	-0.0	-0.0	-0.0	-0.0	-0.0	-0.0
0.0145	-0.0	-0.0	-0.0	-4.619915962219238	2.75264310836792	-764.9500122070312	-0.0	-0.0	-0.0	-34.91862487792969	16.30449676513672	76.70254516601562	-0.0	-0.0	-0.0	-0.0	-0.0	-0.0
0.015	-0.0	-0.0	-0.0	-4.400866985321045	0.5444396734237671	-767.028076171875	-0.0	-0.0	-0.0	-34.73982238769531	16.114715576171875	75.06551361083984	-0.0	-0.0	-0.0	-0.0	-0.0	-0.0
0.0155	-0.0	-0.0	-0.0	-4.371315002441406	-1.7627571821212769	-768.5596923828125	-0.0	-0.0	-0.0	-34.86897659301758	16.27478790283203	76.89839172363281	-0.0	-0.0	-0.0	-0.0	-0.0	-0.0
0.016	-0.0	-0.0	-0.0	-3.97481107711792	-3.1492550373077397	-772.3260498046875	-0.0	-0.0	-0.0	-34.83892059326172	15.984323501586914	74.90805053710938	-0.0	-0.0	-0.0	-0.0	-0.0	-0.0
0.0165	-0.0	-0.0	-0.0	-3.935299873352051	-3.743195772171021	-772.1286010742188	-0.0	-0.0	-0.0	-34.57975006103516	16.304365158081055	77.29158020019531	-0.0	-0.0	-0.0	-0.0	-0.0	-0.0
0.017	-0.0	-0.0	-0.0	-4.232905387878418	-5.050567626953125	-773.504150390625	-0.0	-0.0	-0.0	-35.20718002319336	16.045042037963867	75.5321044921875	-0.0	-0.0	-0.0	-0.0	-0.0	-0.0
0.0175	-0.0	-0.0	-0.0	-3.9647326469421382	-5.545802116394043	-774.6049194335938	-0.0	-0.0	-0.0	-34.77965545654297	16.01459503173828	75.92488098144531	-0.0	-0.0	-0.0	-0.0	-0.0	-0.0
0.018000000000000002	-0.0	-0.0	-0.0	-3.925262451171875	-5.802744388580322	-770.482666015625	-0.0	-0.0	-0.0	-34.530967712402344	16.203388214111328	74.82990264892578	-0.0	-0.0	-0.0	-0.0	-0.0	-0.0
0.0185	-0.0	-0.0	-0.0	-4.212569236755371	-6.199812889099121	-768.2442626953125	-0.0	-0.0	-0.0	-34.810279846191406	16.3547306060791	76.27653503417969	-0.0	-0.0	-0.0	-0.0	-0.0	-0.0
0.019	-0.0	-0.0	-0.0	-4.330357551574707	-5.714995861053467	-766.6759033203125	-0.0	-0.0	-0.0	-34.93907928466797	16.354768753051758	76.04639434814453	-0.0	-0.0	-0.0	-0.0	-0.0	-0.0
0.0195	-0.0	-0.0	-0.0	-5.293830871582031	-5.141199588775635	-765.0653686523438	-0.0	-0.0	-0.0	-35.098514556884766	16.284503936767578	76.27742767333984	-0.0	-0.0	-0.0	-0.0	-0.0	-0.0
0.02	-0.0	-0.0	-0.0	-6.027182102203369	-4.743460178375244	-760.1981811523438	-0.0	-0.0	-0.0	-34.91155242919922	16.515148162841797	76.08003234863281	-0.0	-0.0	-0.0	-0.0	-0.0	-0.0
0.0205	-0.0	-0.0	-0.0	-6.87771463394165	-4.634780883789063	-758.5094604492188	-0.0	-0.0	-0.0	-34.88880157470703	16.245285034179688	74.8742904663086	-0.0	-0.0	-0.0	-0.0	-0.0	-0.0
0.021	-0.0	-0.0	-0.0	-8.098650932312012	-5.150075435638428	-756.2025756835938	-0.0	-0.0	-0.0	-34.647727966308594	16.092878341674805	76.0654525756836	-0.0	-0.0	-0.0	-0.0	-0.0	-0.0
0.021500000000000002	-0.0	-0.0	-0.0	-8.483126640319824	-5.219793319702148	-756.248046875	-0.0	-0.0	-0.0	-34.499778747558594	16.104564666748047	74.58425903320312	-0.0	-0.0	-0.0	-0.0	-0.0	-0.0
0.022	-0.0	-0.0	-0.0	-8.893598556518555	-5.537509441375732	-755.3749389648438	-0.0	-0.0	-0.0	-34.99766159057617	15.924625396728516	74.7528076171875	-0.0	-0.0	-0.0	-0.0	-0.0	-0.0
0.0225	-0.0	-0.0	-0.0	-7.9785475730896	-6.08025598526001	-754.8223266601562	-0.0	-0.0	-0.0	-34.76062774658203	15.86151123046875	75.8816146850586	-0.0	-0.0	-0.0	-0.0	-0.0	-0.0
0.023	-0.0	-0.0	-0.0	-7.8622612953186035	-6.894117832183838	-753.9160766601562	-0.0	-0.0	-0.0	-34.58893585205078	15.79578971862793	75.7298583984375	-0.0	-0.0	-0.0	-0.0	-0.0	-0.0
0.0235	-0.0	-0.0	-0.0	-7.148664474487305	-7.4096360206604	-756.7880249023438	-0.0	-0.0	-0.0	-34.80638885498047	16.182209014892578	75.4547119140625	-0.0	-0.0	-0.0	-0.0	-0.0	-0.0
0.024	-0.0	-0.0	-0.0	-6.671479225158691	-7.684506416320801	-757.5999755859375	-0.0	-0.0	-0.0	-34.95899963378906	16.233280181884766	76.58313751220703	-0.0	-0.0	-0.0	-0.0	-0.0	-0.0
0.0245	-0.0	-0.0	-0.0	-7.117569446563721	-8.250618934631348	-760.4246826171875	-0.0	-0.0	-0.0	-34.8503532409668	16.065895080566406	76.507568359375	-0.0	-0.0	-0.0	-0.0	-0.0	-0.0
